{
    "asset" : {
        "generator" : "Khronos glTF Blender I/O v1.1.46",
        "version" : "2.0"
    },
    "scene" : 0,
    "scenes" : [
        {
            "name" : "Scene",
            "nodes" : [
                3
            ]
        }
    ],
    "nodes" : [
        {
            "mesh" : 0,
            "name" : "Soccer_Ball_Low_Soccer_Ball_0",
            "translation" : [
                0,
                -0.25,
                0
            ]
        },
        {
            "children" : [
                0
            ],
            "name" : "Soccer_Ball_Low",
            "rotation" : [
                -0.7071068286895752,
                0,
                0,
                0.7071067094802856
            ],
            "scale" : [
                100,
                100,
                100
            ],
            "translation" : [
                2.6278605673724087e-06,
                5.033779416407924e-06,
                0
            ]
        },
        {
            "children" : [
                1
            ],
            "name" : "RootNode"
        },
        {
            "children" : [
                2
            ],
            "name" : "76d26a49a9b049eda619b07a5674ba81.fbx",
            "rotation" : [
                0.7071068286895752,
                0,
                0,
                0.7071068286895752
            ]
        }
    ],
    "materials" : [
        {
            "doubleSided" : true,
            "emissiveFactor" : [
                0,
                0,
                0
            ],
            "name" : "Soccer_Ball",
            "normalTexture" : {
                "index" : 0,
                "texCoord" : 0
            },
            "pbrMetallicRoughness" : {
                "baseColorTexture" : {
                    "index" : 1,
                    "texCoord" : 0
                },
                "metallicRoughnessTexture" : {
                    "index" : 2,
                    "texCoord" : 0
                }
            }
        }
    ],
    "meshes" : [
        {
            "name" : "Soccer_Ball_Low_Soccer_Ball_0",
            "primitives" : [
                {
                    "attributes" : {
                        "POSITION" : 0,
                        "NORMAL" : 1,
                        "TEXCOORD_0" : 2
                    },
                    "indices" : 3,
                    "material" : 0
                }
            ]
        }
    ],
    "textures" : [
        {
            "source" : 0
        },
        {
            "source" : 1
        },
        {
            "source" : 2
        }
    ],
    "images" : [
        {
            "mimeType" : "image/png",
            "name" : "Soccer_Ball_normal",
            "uri" : "Soccer_Ball_normal.png"
        },
        {
            "mimeType" : "image/png",
            "name" : "Soccer_Ball_baseColor",
            "uri" : "Soccer_Ball_baseColor.png"
        },
        {
            "mimeType" : "image/png",
            "name" : "Soccer_Ball_metallicRoughness",
            "uri" : "Soccer_Ball_metallicRoughness.png"
        }
    ],
    "accessors" : [
        {
            "bufferView" : 0,
            "componentType" : 5126,
            "count" : 557,
            "max" : [
                0.2500000596046448,
                0.5,
                0.25000011920928955
            ],
            "min" : [
                -0.24999995529651642,
                0,
                -0.2499999701976776
            ],
            "type" : "VEC3"
        },
        {
            "bufferView" : 1,
            "componentType" : 5126,
            "count" : 557,
            "type" : "VEC3"
        },
        {
            "bufferView" : 2,
            "componentType" : 5126,
            "count" : 557,
            "type" : "VEC2"
        },
        {
            "bufferView" : 3,
            "componentType" : 5123,
            "count" : 2880,
            "type" : "SCALAR"
        }
    ],
    "bufferViews" : [
        {
            "buffer" : 0,
            "byteLength" : 6684,
            "byteOffset" : 0
        },
        {
            "buffer" : 0,
            "byteLength" : 6684,
            "byteOffset" : 6684
        },
        {
            "buffer" : 0,
            "byteLength" : 4456,
            "byteOffset" : 13368
        },
        {
            "buffer" : 0,
            "byteLength" : 5760,
            "byteOffset" : 17824
        }
    ],
    "buffers" : [
        {
            "byteLength" : 23584,
            "uri" : "ball.bin"
        }
    ]
}
